<?xml version="1.0" encoding="UTF-8" standalone="no"?>
<!-- Created with Inkscape (http://www.inkscape.org/) -->

<svg
   xmlns:dc="http://purl.org/dc/elements/1.1/"
   xmlns:cc="http://creativecommons.org/ns#"
   xmlns:rdf="http://www.w3.org/1999/02/22-rdf-syntax-ns#"
   xmlns:svg="http://www.w3.org/2000/svg"
   xmlns="http://www.w3.org/2000/svg"
   xmlns:sodipodi="http://sodipodi.sourceforge.net/DTD/sodipodi-0.dtd"
   xmlns:inkscape="http://www.inkscape.org/namespaces/inkscape"
   width="222.91972mm"
   height="124.28241mm"
   viewBox="0 0 222.91972 124.28241"
   version="1.1"
   id="svg8"
   inkscape:version="0.92.5 (2060ec1f9f, 2020-04-08)"
   sodipodi:docname="about.svg">
  <defs
     id="defs2" />
  <sodipodi:namedview
     id="base"
     pagecolor="#ffffff"
     bordercolor="#666666"
     borderopacity="1.0"
     inkscape:pageopacity="0.0"
     inkscape:pageshadow="2"
     inkscape:zoom="1.4"
     inkscape:cx="389.05836"
     inkscape:cy="316.7027"
     inkscape:document-units="mm"
     inkscape:current-layer="g949"
     showgrid="false"
     showguides="false"
     inkscape:window-width="1920"
     inkscape:window-height="1056"
     inkscape:window-x="0"
     inkscape:window-y="0"
     inkscape:window-maximized="1"
     fit-margin-top="0"
     fit-margin-left="0"
     fit-margin-right="0"
     fit-margin-bottom="0" />
  <metadata
     id="metadata5">
    <rdf:RDF>
      <cc:Work
         rdf:about="">
        <dc:format>image/svg+xml</dc:format>
        <dc:type
           rdf:resource="http://purl.org/dc/dcmitype/StillImage" />
        <dc:title></dc:title>
      </cc:Work>
    </rdf:RDF>
  </metadata>
  <g
     inkscape:label="Layer 1"
     inkscape:groupmode="layer"
     id="layer1"
     transform="translate(2.5769105,-297.08784)">
    <ellipse
       style="display:inline;opacity:1;fill:#deaf9e;fill-opacity:1;stroke:none;stroke-width:0.21069959;stroke-opacity:1;enable-background:new"
       id="path1223-1-2"
       cx="158.80658"
       cy="403.66119"
       rx="13.987574"
       ry="18.225513"
       transform="matrix(-0.95304585,0.30282602,0.52073568,0.85371796,0,0)" />
    <ellipse
       style="display:inline;opacity:1;fill:#deaf9e;fill-opacity:1;stroke:none;stroke-width:0.21069957;stroke-opacity:1;enable-background:new"
       id="path1223-1"
       cx="345.20621"
       cy="338.01831"
       rx="13.987574"
       ry="18.225512"
       transform="matrix(0.95304585,0.30282603,-0.52073568,0.85371796,0,0)" />
    <path
       style="opacity:1;fill:#fcc255;fill-opacity:1;stroke:none;stroke-width:0.26458332;stroke-opacity:1;enable-background:new"
       d="m 110.02861,437.08457 c -41.29501,0 -82.59007,12.73491 -108.0600605,38.2049 -1.81589998,1.81589 -3.31709,3.98473 -4.54546,6.43061 a 131.17372,131.17372 0 0 0 110.3787805,60.3002 131.17372,131.17372 0 0 0 112.54095,-64.08601 c -0.69088,-0.9478 -1.44093,-1.8316 -2.25415,-2.6448 -25.46998,-25.46999 -66.76504,-38.2049 -108.06006,-38.2049 z"
       id="rect907"
       inkscape:connector-curvature="0" />
    <path
       style="fill:#15110e;fill-opacity:1;stroke:none;stroke-width:0.26458332px;stroke-linecap:butt;stroke-linejoin:miter;stroke-opacity:1;enable-background:new"
       d="m 140.34459,439.41001 -62.78532,0.34726 c -1.23131,0.20637 -2.45842,0.42498 -3.68143,0.65526 -0.9084,3.19992 -18.74315,66.27955 -19.68251,90.03274 a 131.17372,131.17372 0 0 0 53.60654,11.57501 131.17372,131.17372 0 0 0 64.40175,-17.08836 c -5.93125,-27.73312 -28.55002,-82.29167 -30.92989,-85.37464 -0.30952,-0.0498 -0.61916,-0.099 -0.92914,-0.14727 z"
       id="path946"
       inkscape:connector-curvature="0" />
    <path
       inkscape:connector-curvature="0"
       style="color:#000000;font-style:normal;font-variant:normal;font-weight:normal;font-stretch:normal;font-size:medium;line-height:normal;font-family:sans-serif;font-variant-ligatures:normal;font-variant-position:normal;font-variant-caps:normal;font-variant-numeric:normal;font-variant-alternates:normal;font-feature-settings:normal;text-indent:0;text-align:start;text-decoration:none;text-decoration-line:none;text-decoration-style:solid;text-decoration-color:#000000;letter-spacing:normal;word-spacing:normal;text-transform:none;writing-mode:lr-tb;direction:ltr;text-orientation:mixed;dominant-baseline:auto;baseline-shift:baseline;text-anchor:start;white-space:normal;shape-padding:0;clip-rule:nonzero;display:inline;overflow:visible;visibility:visible;opacity:0.24200003;isolation:auto;mix-blend-mode:normal;color-interpolation:sRGB;color-interpolation-filters:linearRGB;solid-color:#000000;solid-opacity:1;vector-effect:none;fill:#806600;fill-opacity:0.52356023;fill-rule:nonzero;stroke:none;stroke-width:4.16499996;stroke-linecap:round;stroke-linejoin:miter;stroke-miterlimit:4;stroke-dasharray:none;stroke-dashoffset:0;stroke-opacity:1;color-rendering:auto;image-rendering:auto;shape-rendering:auto;text-rendering:auto;enable-background:accumulate"
       d="m 58.84828,458.78298 a 2.0827082,2.0827082 0 0 0 -1.8986,1.29708 c 0,0 -4.6743,11.0263 -8.83201,24.99434 -3.70416,12.44428 -7.08999,27.17401 -6.25285,39.01829 a 131.17372,131.17372 0 0 0 4.45554,2.5492 c -1.56022,-10.92641 1.82026,-27.04576 5.78931,-40.37996 4.0853,-13.72478 8.67389,-24.55664 8.67389,-24.55664 a 2.0827082,2.0827082 0 0 0 -1.93528,-2.92231 z m 103.85567,3.03289 a 2.0827082,2.0827082 0 0 0 -0.20826,0.009 2.0827082,2.0827082 0 0 0 -1.61644,3.10937 c 0,0 5.70527,10.28768 11.21534,23.50503 4.05047,9.71615 7.9318,21.05221 9.40976,30.7733 a 131.17372,131.17372 0 0 0 3.8039,-2.85097 c -1.74522,-9.77482 -5.53558,-20.32898 -9.36893,-29.5243 -5.60772,-13.45162 -11.41894,-23.92308 -11.41894,-23.92308 a 2.0827082,2.0827082 0 0 0 -1.81643,-1.09813 z"
       id="path979" />
    <path
       style="fill:#c49687;fill-opacity:1;stroke:none;stroke-width:0.25124201px;stroke-linecap:butt;stroke-linejoin:miter;stroke-opacity:1;enable-background:new"
       d="m 71.91285,413.57079 c 0,0 1.88968,37.98473 3.30695,42.17615 1.41728,4.19142 15.4581,25.99826 33.25925,26.57004 15.77524,0.50671 30.69566,-18.98798 32.17129,-24.73629 3.52778,-13.74239 0.94485,-43.48597 0.94485,-43.48597 z"
       id="path1556"
       inkscape:connector-curvature="0"
       sodipodi:nodetypes="cssscc" />
    <path
       style="color:#000000;font-style:normal;font-variant:normal;font-weight:normal;font-stretch:normal;font-size:medium;line-height:normal;font-family:sans-serif;font-variant-ligatures:normal;font-variant-position:normal;font-variant-caps:normal;font-variant-numeric:normal;font-variant-alternates:normal;font-feature-settings:normal;text-indent:0;text-align:start;text-decoration:none;text-decoration-line:none;text-decoration-style:solid;text-decoration-color:#000000;letter-spacing:normal;word-spacing:normal;text-transform:none;writing-mode:lr-tb;direction:ltr;text-orientation:mixed;dominant-baseline:auto;baseline-shift:baseline;text-anchor:start;white-space:normal;shape-padding:0;clip-rule:nonzero;display:inline;overflow:visible;visibility:visible;opacity:1;isolation:auto;mix-blend-mode:normal;color-interpolation:sRGB;color-interpolation-filters:linearRGB;solid-color:#000000;solid-opacity:1;vector-effect:none;fill:#000000;fill-opacity:1;fill-rule:nonzero;stroke:none;stroke-width:6.56500006;stroke-linecap:butt;stroke-linejoin:miter;stroke-miterlimit:4;stroke-dasharray:none;stroke-dashoffset:0;stroke-opacity:1;color-rendering:auto;image-rendering:auto;shape-rendering:auto;text-rendering:auto;enable-background:accumulate"
       d="m 142.50104,437.39617 c -6.47319,6.98049 -13.40001,10.89461 -20.40702,12.86382 -9.3239,2.62034 -18.93505,1.73258 -27.7027,-0.72502 -8.0909,-2.26791 -15.35944,-5.84991 -20.84626,-9.05165 0.21211,2.87 0.43362,5.54684 0.65628,7.89151 5.22722,2.76606 11.51525,5.54789 18.418,7.48275 9.57074,2.68271 20.42975,3.76339 31.25029,0.72244 6.26696,-1.76123 12.47187,-4.93027 18.3105,-9.85212 0.20623,-3.01827 0.29984,-6.1938 0.32091,-9.33173 z"
       id="path950"
       inkscape:connector-curvature="0" />
    <path
       style="display:inline;opacity:1;fill:#f7c6b4;fill-opacity:1;stroke:none;stroke-width:0.26458332px;stroke-linecap:butt;stroke-linejoin:miter;stroke-opacity:1;enable-background:new"
       d="m 53.76725,369.85459 c 0,0 -0.89376,-4.71659 -0.91872,30.00406 -0.0212,29.55718 33.29214,44.60659 52.09757,44.4416 23.71694,0.22137 39.26873,-11.44892 47.65525,-25.09686 17.80549,-28.97606 6.25393,-85.86875 3.64536,-91.8312 -2.60857,-5.96244 -9.68897,-22.35915 -50.3081,-18.25997 -40.61913,4.09918 -52.17136,60.74237 -52.17136,60.74237 z"
       id="path1148"
       inkscape:connector-curvature="0"
       sodipodi:nodetypes="cscsssc" />
    <ellipse
       style="display:inline;opacity:0.147;fill:#db9095;fill-opacity:1;stroke:none;stroke-width:0.14411126;stroke-opacity:1;enable-background:new"
       id="path854-3"
       cx="142.44542"
       cy="378.57498"
       rx="13.217896"
       ry="3.6091866" />
    <path
       style="fill:#15110e;fill-opacity:1;stroke:none;stroke-width:0.23683241px;stroke-linecap:butt;stroke-linejoin:miter;stroke-opacity:1;enable-background:new"
       d="m 107.13933,299.74087 c -5.34403,-0.0522 -11.3148,0.57458 -17.94258,2.16381 -38.56161,9.24647 -46.69631,39.41969 -46.69631,39.41969 0,0 4.02965,-1.32613 6.28143,-2.0027 0,0 -2.66268,2.80726 -2.05947,14.40673 0.56294,10.82513 5.71609,37.58417 5.71609,37.58417 0,0 -1.49389,-25.40618 9.4835,-37.35893 1.11209,-1.2109 2.56146,-2.55066 4.29173,-3.97899 -6.71665,10.27477 -4.77641,21.56217 -4.45636,18.18702 1.25454,-13.23022 16.20861,-22.77797 16.20861,-22.77797 l -3.09644,8.3447 c 3.09617,-8.34437 41.9392,-26.83729 35.18388,-21.87577 -6.75532,4.96152 -9.00668,16.01203 -9.00668,16.01203 9.00709,-16.01217 33.77623,-20.74832 33.77623,-20.74832 -1.12589,8.34437 -16.60674,15.78679 -16.60674,15.78679 9.76852,0.085 16.60674,-5.41242 16.60674,-5.41242 -1.9703,7.89333 -9.43086,13.10764 -1.9699,7.89299 -0.84441,4.73598 -8.39682,15.1795 -8.39682,15.1795 0,0 15.81678,-6.26994 21.36751,-14.65224 1.89511,-2.86187 -4.87455,17.64734 -4.87455,17.64734 0,0 8.11378,-4.65076 8.59586,-11.98709 4.43992,10.63974 11.53831,19.70534 11.53831,19.70534 v 0 c 0.002,8.88738 -3.46077,17.63344 -3.46077,17.63344 0,0 3.9406,-1.12775 7.03678,-5.86374 1.83765,-2.81091 2.3825,-10.37293 2.52491,-16.06875 3.54362,-3.58325 6.90255,-9.55248 6.20066,-19.11284 -1.40735,-19.16951 -19.42156,-27.96516 -19.42156,-27.96516 0,0 -0.84465,-3.83389 -3.94084,-5.63808 -1.58294,-0.9224 -3.60417,-0.90021 -5.20485,-0.65958 -4.67706,-4.65191 -19.07723,-13.67941 -37.67837,-13.86097 z"
       id="path1210"
       inkscape:connector-curvature="0"
       sodipodi:nodetypes="ssccscscsccsccccccscccccscscscs" />
    <g
       id="g955"
       transform="rotate(-12.258774,636.4572,306.3199)">
      <path
         sodipodi:nodetypes="ccc"
         inkscape:connector-curvature="0"
         id="path1261-2"
         d="m 65.085021,251.28224 c 0,0 13.821176,8.90868 29.885799,2.10248 -3.498806,-5.53514 -21.888961,-13.77763 -29.885799,-2.10248 z"
         style="display:inline;fill:#f4e3d7;stroke:none;stroke-width:0.34701699px;stroke-linecap:butt;stroke-linejoin:miter;stroke-opacity:1;enable-background:new" />
      <ellipse
         transform="matrix(0.99995135,0.00986416,-0.03982341,0.99920673,0,0)"
         ry="4.5356746"
         rx="7.1950769"
         cy="249.83466"
         cx="89.161339"
         id="path1263-2"
         style="display:inline;fill:#5e3b31;fill-opacity:1;stroke:none;stroke-width:0.29214132;stroke-opacity:1;enable-background:new" />
      <ellipse
         transform="matrix(0.99995135,0.00986416,-0.03982341,0.99920673,0,0)"
         ry="2.177124"
         rx="3.4081948"
         cy="249.16942"
         cx="89.350731"
         id="path1265-6"
         style="display:inline;fill:#15110e;fill-opacity:1;stroke:none;stroke-width:0.30569097;stroke-opacity:1;enable-background:new" />
      <path
         sodipodi:nodetypes="cccsc"
         inkscape:connector-curvature="0"
         id="path1259-9"
         d="m 94.97082,253.38472 c 0.08988,-0.17977 -15.13359,-14.76094 -29.885799,-2.10248 -4.23496,-0.23628 -2.430488,-9.07402 -2.430488,-9.07402 0,0 -3.235484,7.59329 9.616021,2.90836 13.47929,-4.91378 22.700266,8.26814 22.700266,8.26814 z"
         style="fill:#15110e;fill-opacity:1;stroke:none;stroke-width:0.34701699px;stroke-linecap:butt;stroke-linejoin:miter;stroke-opacity:1;enable-background:new" />
    </g>
    <path
       style="opacity:0.49100001;fill:#c49687;fill-opacity:1;stroke:none;stroke-width:0.30930775;stroke-opacity:1;enable-background:new"
       d="m 99.477711,374.30092 c -3.322568,1.79182 -3.029351,8.24927 -4.826062,4.91765 -1.796706,-3.33163 -0.559756,-7.485 2.762831,-9.27683 3.32258,-1.79183 7.47256,-0.54358 9.26928,2.78804 1.7967,3.33163 -3.88348,-0.22069 -7.206049,1.57114 z"
       id="path1646"
       inkscape:connector-curvature="0"
       sodipodi:nodetypes="sssss" />
    <path
       style="fill:#15110e;fill-opacity:1;stroke:none;stroke-width:0.26458332px;stroke-linecap:butt;stroke-linejoin:miter;stroke-opacity:1;enable-background:new"
       d="m 119.3791,359.88362 c 0,0 16.89622,-1.36336 27.12101,6.66265 1.79937,1.41242 3.13806,3.61215 3.13806,3.61215 0,0 0.248,-4.72519 -0.99909,-6.07594 -1.2471,-1.35076 -10.73499,-8.1881 -21.22872,-8.52101 -10.49371,-0.3329 -8.03126,4.32215 -8.03126,4.32215 z"
       id="path1471"
       inkscape:connector-curvature="0"
       sodipodi:nodetypes="csccsc" />
    <path
       style="fill:#15110e;fill-opacity:1;stroke:none;stroke-width:0.26458332px;stroke-linecap:butt;stroke-linejoin:miter;stroke-opacity:1;enable-background:new"
       d="m 93.3597,360.10138 c 0,0 -15.306318,-4.23136 -27.229628,2.24294 -2.098274,1.13934 -4.004705,3.15977 -4.004705,3.15977 0,0 1.18971,-4.86502 2.755757,-6.03424 1.566026,-1.16922 12.446587,-6.554 22.307473,-5.13017 9.860883,1.42382 6.171103,5.7617 6.171103,5.7617 z"
       id="path1471-3"
       inkscape:connector-curvature="0"
       sodipodi:nodetypes="csccsc" />
    <g
       id="g949"
       transform="rotate(10.116949,-528.94911,404.86646)">
      <path
         sodipodi:nodetypes="ccc"
         inkscape:connector-curvature="0"
         id="path1261-2-3"
         d="m 127.12641,256.44167 c 0,0 -13.82117,8.90868 -29.885798,2.10248 3.498808,-5.53514 21.888958,-13.77763 29.885798,-2.10248 z"
         style="display:inline;fill:#f4e3d7;stroke:none;stroke-width:0.34701699px;stroke-linecap:butt;stroke-linejoin:miter;stroke-opacity:1;enable-background:new" />
      <ellipse
         transform="matrix(-0.99995135,0.00986416,0.03982341,0.99920673,0,0)"
         ry="4.5356746"
         rx="7.1950774"
         cy="256.89301"
         cx="-102.77834"
         id="path1263-2-6"
         style="display:inline;fill:#5e3b31;fill-opacity:1;stroke:none;stroke-width:0.29214132;stroke-opacity:1;enable-background:new" />
      <ellipse
         transform="matrix(-0.99995135,0.00986416,0.03982341,0.99920673,0,0)"
         ry="2.177124"
         rx="3.4081948"
         cy="256.22778"
         cx="-102.58895"
         id="path1265-6-7"
         style="display:inline;fill:#15110e;fill-opacity:1;stroke:none;stroke-width:0.30569097;stroke-opacity:1;enable-background:new" />
      <path
         sodipodi:nodetypes="cccsc"
         inkscape:connector-curvature="0"
         id="path1259-9-5"
         d="m 97.240612,258.54415 c -0.0899,-0.17977 15.133588,-14.76094 29.885798,-2.10248 4.23496,-0.23628 2.43049,-9.07402 2.43049,-9.07402 0,0 3.23549,7.59329 -9.61602,2.90836 -13.47929,-4.91378 -22.700268,8.26814 -22.700268,8.26814 z"
         style="fill:#15110e;fill-opacity:1;stroke:none;stroke-width:0.34701699px;stroke-linecap:butt;stroke-linejoin:miter;stroke-opacity:1;enable-background:new" />
    </g>
    <ellipse
       style="display:inline;opacity:0.147;fill:#db9095;fill-opacity:1;stroke:none;stroke-width:0.14411126;stroke-opacity:1;enable-background:new"
       id="path854-3-3"
       cx="67.886467"
       cy="379.16284"
       rx="13.217896"
       ry="3.6091866" />
    <path
       style="fill:#db9095;fill-opacity:1;stroke:none;stroke-width:0.26458332;stroke-opacity:1"
       d="m 136.04021,386.11221 c 1e-5,3.69022 -14.35928,6.68174 -32.07235,6.68174 -17.713069,0 -32.072345,-2.99152 -32.072339,-6.68174 -6e-6,-3.69022 14.35927,-2.40543 32.072339,-2.40543 17.71307,0 32.07236,-1.28479 32.07235,2.40543 z"
       id="path972"
       inkscape:connector-curvature="0"
       sodipodi:nodetypes="cscsc" />
    <path
       style="fill:#ffe6d5;fill-opacity:1;stroke:none;stroke-width:0.26458332px;stroke-linecap:butt;stroke-linejoin:miter;stroke-opacity:1"
       d="m 83.566991,383.49342 c -3.869796,0.0226 -6.971847,0.1827 -9.004617,0.65474 -0.168326,0.0726 -0.304927,0.14776 -0.395325,0.22686 0,0 -0.26716,4.00906 1.73736,4.00906 2.004523,0 0.668184,-1.73757 2.672707,-1.87121 2.004518,-0.13365 50.513824,-2.27178 50.914724,0 0.40091,2.27179 -2.00453,2.67271 -2.00453,2.67271 0,0 2.40563,0.93588 5.47925,-1.06868 1.95878,-1.27746 0.66162,-3.04025 -0.53744,-4.15322 -5.34564,-0.88224 -16.08048,-0.25683 -28.46131,-0.25683 -7.749465,0 -14.856827,-0.24579 -20.400819,-0.21343 z"
       id="path1004"
       inkscape:connector-curvature="0" />
    <path
       style="opacity:0.319;fill:#deaf9e;fill-opacity:1;stroke:none;stroke-width:0.26458332px;stroke-linecap:butt;stroke-linejoin:miter;stroke-opacity:1"
       d="m 120.80582,400.94568 c 0,0 -15.36799,5.61268 -27.528755,1.73725 -12.160765,-3.8754 2.80633,6.81538 14.298915,5.87993 14.69983,-3.34085 13.22984,-7.61718 13.22984,-7.61718 z"
       id="path1024"
       inkscape:connector-curvature="0"
       sodipodi:nodetypes="cccc" />
    <path
       style="opacity:0.319;fill:#deaf9e;fill-opacity:1;stroke:none;stroke-width:0.6572299px;stroke-linecap:butt;stroke-linejoin:miter;stroke-opacity:1"
       d="m 146.91327,411.8968 c 0,0 -38.17437,13.94201 -68.381934,4.31537 -30.207567,-9.62657 4.325138,11.44888 32.872934,9.1252 36.51466,-8.29873 35.509,-13.44057 35.509,-13.44057 z"
       id="path1024-9"
       inkscape:connector-curvature="0"
       sodipodi:nodetypes="cccc" />
  </g>
</svg>
