<?xml version="1.0" encoding="UTF-8" standalone="no"?>
<!-- Created with Inkscape (http://www.inkscape.org/) -->

<svg
   xmlns:dc="http://purl.org/dc/elements/1.1/"
   xmlns:cc="http://creativecommons.org/ns#"
   xmlns:rdf="http://www.w3.org/1999/02/22-rdf-syntax-ns#"
   xmlns:svg="http://www.w3.org/2000/svg"
   xmlns="http://www.w3.org/2000/svg"
   xmlns:sodipodi="http://sodipodi.sourceforge.net/DTD/sodipodi-0.dtd"
   xmlns:inkscape="http://www.inkscape.org/namespaces/inkscape"
   width="2887.9492"
   height="3708.1382"
   viewBox="0 0 764.10261 981.11174"
   version="1.1"
   id="svg7132"
   inkscape:version="0.92.5 (2060ec1f9f, 2020-04-08)"
   sodipodi:docname="education.svg">
  <defs
     id="defs7126" />
  <sodipodi:namedview
     id="base"
     pagecolor="#ffffff"
     bordercolor="#666666"
     borderopacity="1.0"
     inkscape:pageopacity="0.0"
     inkscape:pageshadow="2"
     inkscape:zoom="0.24748737"
     inkscape:cx="1371.9468"
     inkscape:cy="1559.5169"
     inkscape:document-units="mm"
     inkscape:current-layer="layer1"
     showgrid="false"
     units="px"
     inkscape:window-width="1914"
     inkscape:window-height="1045"
     inkscape:window-x="6"
     inkscape:window-y="0"
     inkscape:window-maximized="0"
     fit-margin-top="0"
     fit-margin-left="0"
     fit-margin-right="0"
     fit-margin-bottom="0" />
  <metadata
     id="metadata7129">
    <rdf:RDF>
      <cc:Work
         rdf:about="">
        <dc:format>image/svg+xml</dc:format>
        <dc:type
           rdf:resource="http://purl.org/dc/dcmitype/StillImage" />
        <dc:title></dc:title>
      </cc:Work>
    </rdf:RDF>
  </metadata>
  <g
     inkscape:label="Layer 1"
     inkscape:groupmode="layer"
     id="layer1"
     transform="translate(235.91955,146.98534)">
    <path
       style="opacity:1;fill:none;fill-opacity:1;stroke:#2874a6;stroke-width:9.87300014;stroke-miterlimit:4;stroke-dasharray:none;stroke-opacity:1"
       d="M 376.48058,725.70877 C 231.87678,842.21627 42.94659,863.54382 -45.5294,773.34772 -134.00538,683.15159 -88.530471,515.57979 56.047092,399.04553 200.62467,282.51126 389.56835,261.13401 478.09184,351.37858 c 88.52353,90.24457 42.99258,257.82271 -101.61126,374.33019 z"
       id="path5425-0"
       inkscape:connector-curvature="0"
       sodipodi:nodetypes="ssscs" />
    <path
       style="opacity:1;fill:#121212;fill-opacity:1;stroke:none;stroke-width:25.77899933;stroke-miterlimit:4;stroke-dasharray:none;stroke-opacity:1"
       d="M 349.18842,697.87755 C 229.22119,794.53531 72.479609,812.22921 -0.92245575,737.40009 -74.324521,662.57097 -36.597307,523.54887 83.34814,426.8689 203.2936,330.18892 360.04637,312.45378 433.48787,387.32311 c 73.44149,74.86933 35.66777,213.89668 -84.29945,310.55444 z"
       id="path5425"
       inkscape:connector-curvature="0"
       sodipodi:nodetypes="ssscs" />
    <path
       style="fill:#fcc255;fill-opacity:1;stroke:none;stroke-width:0.26458332px;stroke-linecap:butt;stroke-linejoin:miter;stroke-opacity:1"
       d="m 145.34853,299.33196 c 0,0 -53.169599,-30.23126 -91.94071,156.0854 C 14.920999,640.36788 40.945723,757.10691 40.945723,757.10691 l 64.446347,27.54966 c 0,0 263.45872,-333.0317 184.31447,-473.85735 -79.14425,-140.8257 -144.35801,-11.46726 -144.35801,-11.46726 z"
       id="path5317-9"
       inkscape:connector-curvature="0"
       sodipodi:nodetypes="csccsc" />
    <g
       id="g5054"
       transform="translate(0,19.579173)">
      <path
         inkscape:connector-curvature="0"
         id="path50"
         style="fill:#1b4f72;fill-opacity:1;fill-rule:nonzero;stroke:none;stroke-width:0.10244349"
         d="m 439.8764,12.098014 -60.09178,4.07208 -6.09115,0.41143 L 220.96561,26.933954 73.201,-136.76407 l 218.90986,-14.83634 102.81294,113.906334 4.13941,4.57821 40.81319,45.21388" />
      <path
         inkscape:connector-curvature="0"
         id="path52"
         style="fill:#164568;fill-opacity:1;fill-rule:nonzero;stroke:none;stroke-width:0.10244349"
         d="m 95.24655,-125.04866 c -0.89393,-0.34967 -1.55384,-1.1908 -1.62388,-2.2126 -0.0949,-1.41103 0.97158,-2.63292 2.38264,-2.72777 l 191.4719,-12.977 c 0.38903,-0.0271 0.76413,0.0348 1.10472,0.16802 0.89392,0.34966 1.55441,1.19214 1.62215,2.21414 0.0971,1.41083 -0.96935,2.63269 -2.38166,2.72815 L 96.35183,-124.8793 c -0.38998,0.0267 -0.7637,-0.0359 -1.10524,-0.16946" />
      <path
         inkscape:connector-curvature="0"
         id="path54"
         style="fill:#2874a6;fill-opacity:1;fill-rule:nonzero;stroke:none;stroke-width:0.10244349"
         d="M 357.6503,0.482964 317.10405,104.13992 c 0,0 -24.88885,-18.656626 -45.90813,-26.845466 -25.64436,-9.9758 -62.63451,-15.61185 -62.63451,-15.61185 0,0 -27.56627,-19.6269 -50.77279,-28.74832 -18.12899,-7.11309 -43.23242,-11.04762 -52.0023,-12.27797 -0.84366,-0.12109 -1.53681,-0.20514 -2.04907,-0.27351 -0.62837,-0.0808 -1.00547,-0.12919 -1.09873,-0.14386 l -0.0222,9.8e-4 40.54632,-103.65715 c 4.34757,-11.11461 55.89121,-1.34808 115.11833,21.81908 35.57633,13.91596 65.83401,29.50255 83.38601,42.14324 8.11259,5.83534 13.51329,11.03893 15.45873,15.17697 0.85843,1.79879 1.05521,3.40478 0.52528,4.75954" />
      <path
         inkscape:connector-curvature="0"
         id="path56"
         style="fill:#d3dfe8;fill-opacity:1;fill-rule:nonzero;stroke:none;stroke-width:0.10244349"
         d="m 104.10397,20.823244 -0.36677,-0.44031 v 0 c 0.51222,0.0685 1.20538,0.1525 2.04906,0.27351 v 0 l -1.68234,0.16694" />
      <path
         inkscape:connector-curvature="0"
         id="path58"
         style="fill:#216697;fill-opacity:1;fill-rule:nonzero;stroke:none;stroke-width:0.10244349"
         d="m 103.73725,20.382804 -0.80811,-0.94311 40.23277,-102.85557 c 4.34758,-11.11462 55.89125,-1.34808 115.11834,21.81907 35.57633,13.91597 65.834,29.50255 83.38597,42.14323 8.11263,5.83535 13.51334,11.03895 15.45877,15.17698 l -251.33867,24.93291 v 0 c -0.84366,-0.12109 -1.53681,-0.20514 -2.04907,-0.27351 v 0" />
      <path
         inkscape:connector-curvature="0"
         id="path60"
         style="fill:#d4ac0d;fill-opacity:1;fill-rule:nonzero;stroke:none;stroke-width:0.10244349"
         d="m 399.06321,-33.115866 -62.57557,159.975196 -5.14327,-2.01183 63.57943,-162.541576 4.13941,4.57821" />
      <path
         inkscape:connector-curvature="0"
         id="path62"
         style="fill:#f1c40f;fill-opacity:1;fill-rule:nonzero;stroke:none;stroke-width:0.10244349"
         d="m 340.69306,128.50431 -13.55411,-5.3018 -29.33047,60.92265 0.13063,0.0511 c -2.46674,6.30623 0.64494,13.41618 6.95117,15.88291 6.3053,2.46636 13.41524,-0.64531 15.88198,-6.95155 l 0.13062,0.0511 19.79001,-64.65448" />
      <path
         inkscape:connector-curvature="0"
         id="path64"
         style="fill:#d4ac0d;fill-opacity:1;fill-rule:nonzero;stroke:none;stroke-width:0.10244349"
         d="m 343.86908,129.74664 c -2.15027,5.49719 -8.34841,8.20982 -13.84563,6.05954 -5.49816,-2.15065 -8.21079,-8.3488 -6.06052,-13.84599 2.15028,-5.49722 8.34918,-8.21176 13.84734,-6.06111 5.49722,2.15028 8.20909,8.35034 6.05881,13.84756" />
    </g>
    <path
       style="fill:#fcc255;fill-opacity:1;stroke:none;stroke-width:0.26458332px;stroke-linecap:butt;stroke-linejoin:miter;stroke-opacity:1"
       d="m 212.42262,297.67999 c 0,0 -278.926853,-266.113616 -325.05953,-272.520935 -27.21428,-3.779764 -39.30951,69.169644 -27.21427,83.532785 C -127.75595,123.055 83.477103,346.72249 97.584613,412.92937 115.29965,496.06641 212.42262,297.67999 212.42262,297.67999 Z"
       id="path4990"
       inkscape:connector-curvature="0"
       sodipodi:nodetypes="csssc" />
    <path
       style="fill:#ecb74a;fill-opacity:1;stroke:none;stroke-width:0.26458332px;stroke-linecap:butt;stroke-linejoin:miter;stroke-opacity:1"
       d="m 19.093925,121.59743 c -3.560934,18.67918 -12.81562,76.7636 2.287715,110.524 18.174327,40.62497 52.384867,60.93764 67.35196,68.42114 14.9671,7.48355 9.621702,73.7662 22.45064,97.28594 12.82894,23.51971 41.10776,-24.76426 41.10776,-24.76426 l 60.13069,-75.38402 c 0,0 -102.36646,-97.66056 -193.328765,-176.0828 z"
       id="path5378"
       inkscape:connector-curvature="0"
       sodipodi:nodetypes="cscsccc" />
    <path
       style="fill:#15110e;fill-opacity:1;stroke:none;stroke-width:0.26458332px;stroke-linecap:butt;stroke-linejoin:miter;stroke-opacity:1"
       d="m 273.684,295.19724 c 0,0 -76.37885,257.49047 -73.17162,402.88509 C 246.87466,788.43548 74.177351,786.1878 69.932901,770.04596 63.518433,740.11177 54.522983,470.52606 78.0427,441.66095 101.56242,412.79583 134.70383,320.85512 134.70383,320.85512 Z"
       id="path5334"
       inkscape:connector-curvature="0"
       sodipodi:nodetypes="cccscc" />
    <path
       style="fill:#c49687;fill-opacity:1;stroke:none;stroke-width:0.26458332px;stroke-linecap:butt;stroke-linejoin:miter;stroke-opacity:1"
       d="m 123.22024,279.53715 c 0,0 6.80357,46.11309 22.67857,67.27976 15.875,21.16666 141.81807,-24.03646 133.80355,-40.0655 -9.82738,-19.65476 -35.52975,-68.79165 -35.52975,-68.79165 z"
       id="path4988"
       inkscape:connector-curvature="0"
       sodipodi:nodetypes="csscc" />
    <path
       style="fill:#f7c6b4;fill-opacity:1;stroke:none;stroke-width:0.26458332px;stroke-linecap:butt;stroke-linejoin:miter;stroke-opacity:1"
       d="m 68.763908,56.564657 c -11.958878,20.498177 -13.91549,43.503803 -7.055099,74.091313 4.465111,19.90792 -6.865163,31.37529 -8.101932,51.12175 -1.195455,19.08685 0.07598,87.5464 62.675943,100.619 44.23256,9.23698 136.63609,-11.34716 148.73133,-49.14478 12.09521,-37.79761 59.72023,-89.20237 37.79762,-136.071532 C 280.88914,50.311361 289.96056,38.972076 225.70461,21.585166 161.44866,4.1982578 100.78333,1.6815949 68.763908,56.564657 Z"
       id="path906"
       inkscape:connector-curvature="0"
       sodipodi:nodetypes="ssssssss" />
    <ellipse
       style="display:inline;opacity:0.147;fill:#db9095;fill-opacity:1;stroke:none;stroke-width:0.41935751;stroke-opacity:1;enable-background:new"
       id="path854-3-60"
       cx="189.74405"
       cy="178.99509"
       rx="29.469847"
       ry="13.707771" />
    <ellipse
       style="display:inline;opacity:0.147;fill:#db9095;fill-opacity:1;stroke:none;stroke-width:0.28084058;stroke-opacity:1;enable-background:new"
       id="path854-3-60-6"
       cx="68.035713"
       cy="175.21533"
       rx="13.216871"
       ry="13.707771" />
    <path
       style="fill:#deaf9e;fill-opacity:1;stroke:none;stroke-width:0.1901328px;stroke-linecap:butt;stroke-linejoin:miter;stroke-opacity:1"
       d="m 95.056857,156.13139 c 0,0 -5.798948,14.48894 -18.793646,14.93179 -12.994691,0.44284 -15.922081,-20.07174 -15.922081,-20.07174 0,0 21.522435,15.45002 34.715727,5.13995 z"
       id="path1081-3"
       inkscape:connector-curvature="0" />
    <path
       style="fill:#deaf9e;fill-opacity:1;stroke:none;stroke-width:0.26458332px;stroke-linecap:butt;stroke-linejoin:miter;stroke-opacity:1"
       d="m 134.48791,158.50585 c 0,0 9.30309,17.48919 30.15012,18.02373 20.84702,0.53454 25.54335,-24.22801 25.54335,-24.22801 0,0 -34.52784,18.64927 -55.69347,6.20428 z"
       id="path1081"
       inkscape:connector-curvature="0" />
    <path
       style="display:inline;fill:#f4e3d7;stroke:none;stroke-width:0.64248264px;stroke-linecap:butt;stroke-linejoin:miter;stroke-opacity:1;enable-background:new"
       d="m 60.34113,150.99144 c 0,0 16.054857,26.28895 34.715727,6.20428 C 90.992602,140.8619 69.630359,116.53881 60.34113,150.99144 Z"
       id="path1261-2-6"
       inkscape:connector-curvature="0"
       sodipodi:nodetypes="ccc" />
    <ellipse
       style="display:inline;fill:#5e3b31;fill-opacity:1;stroke:none;stroke-width:0.52281368;stroke-opacity:1;enable-background:new"
       id="path1263-2-7"
       cx="79.218506"
       cy="146.02235"
       rx="8.3597794"
       ry="12.502318"
       transform="matrix(0.99972578,0.02341711,-0.01678229,0.99985917,0,0)" />
    <path
       style="fill:#15110e;fill-opacity:1;stroke:none;stroke-width:0.64248264px;stroke-linecap:butt;stroke-linejoin:miter;stroke-opacity:1;enable-background:new"
       d="m 95.056857,157.19572 c 0,-0.66409 -18.942977,-41.09972 -34.715727,-6.20428 -4.919384,-0.69723 -7.256066,-11.29052 -7.256066,-11.29052 0,0 0.674402,6.92099 15.602875,-6.90393 15.657714,-14.50029 26.368918,24.39873 26.368918,24.39873 z"
       id="path1259-9-3"
       inkscape:connector-curvature="0"
       sodipodi:nodetypes="cccsc" />
    <path
       style="display:inline;fill:#f4e3d7;stroke:none;stroke-width:0.81376761px;stroke-linecap:butt;stroke-linejoin:miter;stroke-opacity:1;enable-background:new"
       d="m 190.18138,152.30157 c 0,0 -25.75636,26.28896 -55.69347,6.20428 6.52017,-16.33381 40.79103,-40.6569 55.69347,-6.20428 z"
       id="path1261-2-6-5"
       inkscape:connector-curvature="0"
       sodipodi:nodetypes="ccc" />
    <ellipse
       style="display:inline;fill:#5e3b31;fill-opacity:1;stroke:none;stroke-width:0.6849438;stroke-opacity:1;enable-background:new"
       id="path1263-2-7-6"
       cx="-157.39813"
       cy="152.547"
       rx="13.409317"
       ry="13.378107"
       transform="matrix(-0.99987802,0.01561885,0.02516083,0.99968342,0,0)" />
    <path
       style="fill:#15110e;fill-opacity:1;stroke:none;stroke-width:0.81376761px;stroke-linecap:butt;stroke-linejoin:miter;stroke-opacity:1;enable-background:new"
       d="m 134.48791,158.50585 c -0.28057,-0.3669 27.75288,-40.07858 55.69347,-6.20428 7.89202,-0.69723 11.6407,-11.29052 11.6407,-11.29052 0,0 -1.08192,6.92099 -25.03125,-6.90393 -25.11924,-14.50028 -42.30292,24.39873 -42.30292,24.39873 z"
       id="path1259-9-3-9"
       inkscape:connector-curvature="0"
       sodipodi:nodetypes="cccsc" />
    <path
       style="opacity:0.49100001;fill:#c49687;fill-opacity:1;stroke:none;stroke-width:0.32920024;stroke-opacity:1;enable-background:new"
       d="m 96.327893,186.63742 c 0,4.71431 5.281567,8.21987 1.84819,8.21987 -3.433373,0 -6.216665,-3.82169 -6.216665,-8.53602 0,-4.71432 2.783292,-8.53602 6.216665,-8.53602 3.433377,0 -1.84819,4.13786 -1.84819,8.85217 z"
       id="path1646-1"
       inkscape:connector-curvature="0"
       sodipodi:nodetypes="sssss" />
    <path
       style="fill:#f3beb0;fill-opacity:1;stroke:none;stroke-width:0.26458332px;stroke-linecap:butt;stroke-linejoin:miter;stroke-opacity:1"
       d="m 103.16579,212.87816 c 0,0 -5.879682,-8.81982 -1.3361,-9.8889 4.54358,-1.06908 15.7517,3.40457 19.51068,11.75986 3.75897,8.35529 -18.17458,-1.87096 -18.17458,-1.87096 z"
       id="path1020"
       inkscape:connector-curvature="0" />
    <ellipse
       style="fill:#db9095;fill-opacity:1;stroke:none;stroke-width:0.26458332;stroke-opacity:1"
       id="path998"
       cx="53.157162"
       cy="250.20306"
       rx="13.096207"
       ry="21.515198"
       transform="rotate(-14.303052)" />
    <path
       style="fill:#ffe6d5;fill-opacity:1;stroke:none;stroke-width:0.26458332px;stroke-linecap:butt;stroke-linejoin:miter;stroke-opacity:1"
       d="m 110.63407,208.23968 a 21.515198,13.096207 75.696948 0 0 -2.62723,0.22738 21.515198,13.096207 75.696948 0 0 -4.68085,3.13004 l -0.1602,1.28106 c 0,0 -2.13794,7.48379 0.80202,10.15649 2.70523,2.45929 18.5847,0.41545 21.13153,0.0698 a 21.515198,13.096207 75.696948 0 0 -14.46527,-14.86473 z"
       id="path1000"
       inkscape:connector-curvature="0" />
    <path
       style="fill:#15110e;fill-opacity:1;stroke:none;stroke-width:0.59456342px;stroke-linecap:butt;stroke-linejoin:miter;stroke-opacity:1;enable-background:new"
       d="m 134.25296,119.33509 c -0.10855,-0.97693 36.59841,-14.42019 62.23047,8.11703 3.86039,3.39427 7.90889,7.28451 7.90889,7.28451 0,0 -0.62437,-10.61457 -3.7463,-13.32023 -3.0109,-3.81615 -27.48977,-25.819268 -51.80248,-16.00442 -21.87762,8.83185 -14.59058,13.92311 -14.59058,13.92311 z"
       id="path1471-7"
       inkscape:connector-curvature="0"
       sodipodi:nodetypes="csccsc" />
    <path
       style="fill:#15110e;fill-opacity:1;stroke:none;stroke-width:0.40155685px;stroke-linecap:butt;stroke-linejoin:miter;stroke-opacity:1;enable-background:new"
       d="m 95.740471,121.89534 c 0.05619,-0.8609 -18.944002,-12.70745 -32.211619,7.15294 -1.998208,2.99112 -4.093784,6.41931 -4.093784,6.41931 0,0 0.323184,-9.35385 1.939152,-11.73815 1.558496,-3.36289 14.229203,-22.75266 26.8139,-14.10351 11.324253,7.78286 7.552351,12.26941 7.552351,12.26941 z"
       id="path1471-7-0"
       inkscape:connector-curvature="0"
       sodipodi:nodetypes="csccsc" />
    <path
       style="fill:#ffe6d5;fill-opacity:1;stroke:none;stroke-width:1.079;stroke-miterlimit:4;stroke-dasharray:none;stroke-opacity:1"
       d="m 156.42158,145.46899 c -1.56091,1.43556 -8.84588,1.06822 -3.94878,3.49433 3.69053,1.24208 2.731,4.65854 2.5536,7.70555 1.20671,1.28805 4.33862,-4.59895 6.7942,-2.2538 4.58381,2.83349 4.11517,0.25419 2.51232,-3.54023 -1.25286,-2.09314 6.04009,-5.82644 2.02303,-5.71199 -3.45254,0.68762 -5.83762,-0.55105 -7.07113,-3.87074 -1.31732,-4.15821 -2.05378,3.5532 -2.86324,4.17688 z"
       id="path1061"
       inkscape:connector-curvature="0" />
    <path
       style="fill:#ffe6d5;fill-opacity:1;stroke:none;stroke-width:0.98930323;stroke-miterlimit:4;stroke-dasharray:none;stroke-opacity:1"
       d="m 73.026531,142.2667 c -1.312181,1.43556 -7.436302,1.06822 -3.319548,3.49433 3.10245,1.24208 2.295819,4.65854 2.146688,7.70555 1.014422,1.28805 3.647267,-4.59895 5.711554,-2.2538 3.853386,2.83349 3.459423,0.25419 2.111985,-3.54023 -1.053219,-2.09314 5.07761,-5.82644 1.700663,-5.71199 -2.902383,0.68762 -4.907404,-0.55105 -5.944355,-3.87074 -1.107407,-4.15821 -1.726514,3.5532 -2.406987,4.17688 z"
       id="path1061-9"
       inkscape:connector-curvature="0" />
    <path
       style="fill:#15110e;fill-opacity:1;stroke:none;stroke-width:0.52358377px;stroke-linecap:butt;stroke-linejoin:miter;stroke-opacity:1;enable-background:new"
       d="m 177.45852,-21.230432 c -18.13483,-1.640731 -46.07108,4.325772 -59.18679,8.250919 C 41.962213,9.857629 25.86444,90.730282 25.86444,90.730282 c 0,0 7.974292,-3.275316 12.430338,-4.946318 0,0 -5.269176,6.93341 -4.075484,35.582206 1.114002,26.73619 11.311568,92.82635 11.311568,92.82635 0,0 -2.956259,-62.74883 18.766892,-92.27004 2.200715,-2.99072 5.068872,-6.29971 8.492903,-9.82748 -13.291575,25.37694 -9.452036,53.25487 -8.818689,44.91884 2.482609,-32.67633 32.075196,-56.25776 32.075196,-56.25776 l -6.12753,20.61009 c 6.127,-20.60926 82.993426,-66.283545 69.625326,-54.029467 -13.3681,12.254097 -17.82331,39.546977 -17.82331,39.546977 17.82412,-39.547314 66.83976,-51.244767 66.83976,-51.244767 -2.22802,20.60915 -32.86307,38.990632 -32.86307,38.990632 19.33092,0.209922 32.86307,-13.367762 32.86307,-13.367762 -3.89903,19.495147 -18.66272,32.373677 -3.89823,19.494297 -1.67101,11.69714 -16.61647,37.49087 -16.61647,37.49087 0,0 31.29982,-15.48568 42.28416,-36.18859 3.75023,-7.068338 -9.64625,43.58593 -9.64625,43.58593 0,0 16.05636,-11.48654 17.01035,-29.60601 8.78615,26.27831 22.83315,48.66877 22.83315,48.66877 v 0 c 0.004,21.95027 -6.84851,43.55152 -6.84851,43.55152 0,0 7.79805,-2.78534 13.92508,-14.48242 3.63652,-6.94245 4.71472,-25.61935 4.99654,-39.68703 7.01247,-8.84999 13.65945,-23.59294 12.27048,-47.20544 -2.785,-47.345365 -38.43331,-69.06913 -38.43331,-69.06913 0,0 -1.67148,-9.469034 -7.79853,-13.925083 -3.13248,-2.27815 21.41237,-10.012642 11.1125,-11.641673 C 240.49693,0.75838558 214.12129,-17.9134 177.45852,-21.230432 Z"
       id="path1210-2"
       inkscape:connector-curvature="0"
       sodipodi:nodetypes="ssccscscsccsccccccscccccscscscs" />
    <path
       style="fill:#15110e;fill-opacity:1;stroke:none;stroke-width:0.26458332px;stroke-linecap:butt;stroke-linejoin:miter;stroke-opacity:1"
       d="m 210.15476,11.929881 c 0,0 54.8942,-13.5493308 89.20238,29.482153 46.74328,58.628366 29.19667,151.316046 3.0238,169.333446 -25.91403,17.83922 -52.91665,46.11309 -52.91665,46.11309 L 270.63094,128.34667 228.34,22.260436 Z"
       id="path4848"
       inkscape:connector-curvature="0"
       sodipodi:nodetypes="csscccc" />
    <ellipse
       style="fill:#f7c6b4;fill-opacity:1;stroke:none;stroke-width:1.079;stroke-miterlimit:4;stroke-dasharray:none;stroke-opacity:1"
       id="path4850"
       cx="289.63147"
       cy="116.66001"
       rx="21.003706"
       ry="40.927994"
       transform="rotate(12.508622)" />
    <path
       sodipodi:nodetypes="ssssssss"
       inkscape:connector-curvature="0"
       id="path4942"
       d="m 68.763908,56.564657 c -11.958878,20.498177 -13.91549,43.503803 -7.055099,74.091313 4.465111,19.90792 -6.865163,31.37529 -8.101932,51.12175 -1.195455,19.08685 0.07598,87.5464 62.675943,100.619 44.23256,9.23698 136.63609,-11.34716 148.73133,-49.14478 12.09521,-37.79761 59.72023,-89.20237 37.79762,-136.071532 C 280.88914,50.311361 289.96056,38.972076 225.70461,21.585166 161.44866,4.1982578 100.78333,1.6815949 68.763908,56.564657 Z"
       style="fill:#f7c6b4;fill-opacity:1;stroke:none;stroke-width:0.26458332px;stroke-linecap:butt;stroke-linejoin:miter;stroke-opacity:1" />
    <ellipse
       ry="13.707771"
       rx="29.469847"
       cy="178.99509"
       cx="189.74405"
       id="ellipse4944"
       style="display:inline;opacity:0.147;fill:#db9095;fill-opacity:1;stroke:none;stroke-width:0.41935751;stroke-opacity:1;enable-background:new" />
    <ellipse
       ry="13.707771"
       rx="13.216871"
       cy="175.21533"
       cx="68.035713"
       id="ellipse4946"
       style="display:inline;opacity:0.147;fill:#db9095;fill-opacity:1;stroke:none;stroke-width:0.28084058;stroke-opacity:1;enable-background:new" />
    <path
       inkscape:connector-curvature="0"
       id="path4948"
       d="m 95.056857,156.13139 c 0,0 -5.798948,14.48894 -18.793646,14.93179 -12.994691,0.44284 -15.922081,-20.07174 -15.922081,-20.07174 0,0 21.522435,15.45002 34.715727,5.13995 z"
       style="fill:#deaf9e;fill-opacity:1;stroke:none;stroke-width:0.1901328px;stroke-linecap:butt;stroke-linejoin:miter;stroke-opacity:1" />
    <path
       inkscape:connector-curvature="0"
       id="path4950"
       d="m 134.48791,158.50585 c 0,0 9.30309,17.48919 30.15012,18.02373 20.84702,0.53454 25.54335,-24.22801 25.54335,-24.22801 0,0 -34.52784,18.64927 -55.69347,6.20428 z"
       style="fill:#deaf9e;fill-opacity:1;stroke:none;stroke-width:0.26458332px;stroke-linecap:butt;stroke-linejoin:miter;stroke-opacity:1" />
    <path
       sodipodi:nodetypes="ccc"
       inkscape:connector-curvature="0"
       id="path4952"
       d="m 60.34113,150.99144 c 0,0 16.054857,26.28895 34.715727,6.20428 C 90.992602,140.8619 69.630359,116.53881 60.34113,150.99144 Z"
       style="display:inline;fill:#f4e3d7;stroke:none;stroke-width:0.64248264px;stroke-linecap:butt;stroke-linejoin:miter;stroke-opacity:1;enable-background:new" />
    <ellipse
       transform="matrix(0.99972578,0.02341711,-0.01678229,0.99985917,0,0)"
       ry="12.502318"
       rx="8.3597794"
       cy="146.02235"
       cx="79.218506"
       id="ellipse4954"
       style="display:inline;fill:#5e3b31;fill-opacity:1;stroke:none;stroke-width:0.52281368;stroke-opacity:1;enable-background:new" />
    <path
       sodipodi:nodetypes="cccsc"
       inkscape:connector-curvature="0"
       id="path4956"
       d="m 95.056857,157.19572 c 0,-0.66409 -18.942977,-41.09972 -34.715727,-6.20428 -4.919384,-0.69723 -7.256066,-11.29052 -7.256066,-11.29052 0,0 0.674402,6.92099 15.602875,-6.90393 15.657714,-14.50029 26.368918,24.39873 26.368918,24.39873 z"
       style="fill:#15110e;fill-opacity:1;stroke:none;stroke-width:0.64248264px;stroke-linecap:butt;stroke-linejoin:miter;stroke-opacity:1;enable-background:new" />
    <path
       sodipodi:nodetypes="ccc"
       inkscape:connector-curvature="0"
       id="path4958"
       d="m 190.18138,152.30157 c 0,0 -25.75636,26.28896 -55.69347,6.20428 6.52017,-16.33381 40.79103,-40.6569 55.69347,-6.20428 z"
       style="display:inline;fill:#f4e3d7;stroke:none;stroke-width:0.81376761px;stroke-linecap:butt;stroke-linejoin:miter;stroke-opacity:1;enable-background:new" />
    <ellipse
       transform="matrix(-0.99987802,0.01561885,0.02516083,0.99968342,0,0)"
       ry="13.378107"
       rx="13.409317"
       cy="152.547"
       cx="-157.39813"
       id="ellipse4960"
       style="display:inline;fill:#5e3b31;fill-opacity:1;stroke:none;stroke-width:0.6849438;stroke-opacity:1;enable-background:new" />
    <path
       sodipodi:nodetypes="cccsc"
       inkscape:connector-curvature="0"
       id="path4962"
       d="m 134.48791,158.50585 c -0.28057,-0.3669 27.75288,-40.07858 55.69347,-6.20428 7.89202,-0.69723 11.6407,-11.29052 11.6407,-11.29052 0,0 -1.08192,6.92099 -25.03125,-6.90393 -25.11924,-14.50028 -42.30292,24.39873 -42.30292,24.39873 z"
       style="fill:#15110e;fill-opacity:1;stroke:none;stroke-width:0.81376761px;stroke-linecap:butt;stroke-linejoin:miter;stroke-opacity:1;enable-background:new" />
    <path
       sodipodi:nodetypes="sssss"
       inkscape:connector-curvature="0"
       id="path4964"
       d="m 96.327893,186.63742 c 0,4.71431 5.281567,8.21987 1.84819,8.21987 -3.433373,0 -6.216665,-3.82169 -6.216665,-8.53602 0,-4.71432 2.783292,-8.53602 6.216665,-8.53602 3.433377,0 -1.84819,4.13786 -1.84819,8.85217 z"
       style="opacity:0.49100001;fill:#c49687;fill-opacity:1;stroke:none;stroke-width:0.32920024;stroke-opacity:1;enable-background:new" />
    <path
       inkscape:connector-curvature="0"
       id="path4966"
       d="m 103.16579,212.87816 c 0,0 -5.879682,-8.81982 -1.3361,-9.8889 4.54358,-1.06908 15.7517,3.40457 19.51068,11.75986 3.75897,8.35529 -18.17458,-1.87096 -18.17458,-1.87096 z"
       style="fill:#f3beb0;fill-opacity:1;stroke:none;stroke-width:0.26458332px;stroke-linecap:butt;stroke-linejoin:miter;stroke-opacity:1" />
    <ellipse
       transform="rotate(-14.303052)"
       ry="21.515198"
       rx="13.096207"
       cy="250.20306"
       cx="53.157162"
       id="ellipse4968"
       style="fill:#db9095;fill-opacity:1;stroke:none;stroke-width:0.26458332;stroke-opacity:1" />
    <path
       id="path4970"
       d="m 110.63407,208.23968 a 21.515198,13.096207 75.696948 0 0 -2.62723,0.22738 21.515198,13.096207 75.696948 0 0 -4.68085,3.13004 l -0.1602,1.28106 c 0,0 -2.13794,7.48379 0.80202,10.15649 2.70523,2.45929 18.5847,0.41545 21.13153,0.0698 a 21.515198,13.096207 75.696948 0 0 -14.46527,-14.86473 z"
       style="fill:#ffe6d5;fill-opacity:1;stroke:none;stroke-width:0.26458332px;stroke-linecap:butt;stroke-linejoin:miter;stroke-opacity:1"
       inkscape:connector-curvature="0" />
    <path
       sodipodi:nodetypes="csccsc"
       inkscape:connector-curvature="0"
       id="path4972"
       d="m 134.25296,119.33509 c -0.10855,-0.97693 36.59841,-14.42019 62.23047,8.11703 3.86039,3.39427 7.90889,7.28451 7.90889,7.28451 0,0 -0.62437,-10.61457 -3.7463,-13.32023 -3.0109,-3.81615 -27.48977,-25.819268 -51.80248,-16.00442 -21.87762,8.83185 -14.59058,13.92311 -14.59058,13.92311 z"
       style="fill:#15110e;fill-opacity:1;stroke:none;stroke-width:0.59456342px;stroke-linecap:butt;stroke-linejoin:miter;stroke-opacity:1;enable-background:new" />
    <path
       sodipodi:nodetypes="csccsc"
       inkscape:connector-curvature="0"
       id="path4974"
       d="m 95.740471,121.89534 c 0.05619,-0.8609 -18.944002,-12.70745 -32.211619,7.15294 -1.998208,2.99112 -4.093784,6.41931 -4.093784,6.41931 0,0 0.323184,-9.35385 1.939152,-11.73815 1.558496,-3.36289 14.229203,-22.75266 26.8139,-14.10351 11.324253,7.78286 7.552351,12.26941 7.552351,12.26941 z"
       style="fill:#15110e;fill-opacity:1;stroke:none;stroke-width:0.40155685px;stroke-linecap:butt;stroke-linejoin:miter;stroke-opacity:1;enable-background:new" />
    <path
       inkscape:connector-curvature="0"
       id="path4976"
       d="m 156.42158,145.46899 c -1.56091,1.43556 -8.84588,1.06822 -3.94878,3.49433 3.69053,1.24208 2.731,4.65854 2.5536,7.70555 1.20671,1.28805 4.33862,-4.59895 6.7942,-2.2538 4.58381,2.83349 4.11517,0.25419 2.51232,-3.54023 -1.25286,-2.09314 6.04009,-5.82644 2.02303,-5.71199 -3.45254,0.68762 -5.83762,-0.55105 -7.07113,-3.87074 -1.31732,-4.15821 -2.05378,3.5532 -2.86324,4.17688 z"
       style="fill:#ffe6d5;fill-opacity:1;stroke:none;stroke-width:1.079;stroke-miterlimit:4;stroke-dasharray:none;stroke-opacity:1" />
    <path
       inkscape:connector-curvature="0"
       id="path4978"
       d="m 73.026531,142.2667 c -1.312181,1.43556 -7.436302,1.06822 -3.319548,3.49433 3.10245,1.24208 2.295819,4.65854 2.146688,7.70555 1.014422,1.28805 3.647267,-4.59895 5.711554,-2.2538 3.853386,2.83349 3.459423,0.25419 2.111985,-3.54023 -1.053219,-2.09314 5.07761,-5.82644 1.700663,-5.71199 -2.902383,0.68762 -4.907404,-0.55105 -5.944355,-3.87074 -1.107407,-4.15821 -1.726514,3.5532 -2.406987,4.17688 z"
       style="fill:#ffe6d5;fill-opacity:1;stroke:none;stroke-width:0.98930323;stroke-miterlimit:4;stroke-dasharray:none;stroke-opacity:1" />
    <path
       sodipodi:nodetypes="ssccscscsccsccccccscccccscscscs"
       inkscape:connector-curvature="0"
       id="path4980"
       d="m 177.45852,-21.230432 c -18.13483,-1.640731 -46.07108,4.325772 -59.18679,8.250919 C 41.962213,9.857629 25.86444,90.730282 25.86444,90.730282 c 0,0 7.974292,-3.275316 12.430338,-4.946318 0,0 -5.269176,6.93341 -4.075484,35.582206 1.114002,26.73619 11.311568,92.82635 11.311568,92.82635 0,0 -2.956259,-62.74883 18.766892,-92.27004 2.200715,-2.99072 5.068872,-6.29971 8.492903,-9.82748 -13.291575,25.37694 -9.452036,53.25487 -8.818689,44.91884 2.482609,-32.67633 32.075196,-56.25776 32.075196,-56.25776 l -6.12753,20.61009 c 6.127,-20.60926 82.993426,-66.283545 69.625326,-54.029467 -13.3681,12.254097 -17.82331,39.546977 -17.82331,39.546977 17.82412,-39.547314 66.83976,-51.244767 66.83976,-51.244767 -2.22802,20.60915 -32.86307,38.990632 -32.86307,38.990632 19.33092,0.209922 32.86307,-13.367762 32.86307,-13.367762 -3.89903,19.495147 -18.66272,32.373677 -3.89823,19.494297 -1.67101,11.69714 -16.61647,37.49087 -16.61647,37.49087 0,0 31.29982,-15.48568 42.28416,-36.18859 3.75023,-7.068338 -9.64625,43.58593 -9.64625,43.58593 0,0 16.05636,-11.48654 17.01035,-29.60601 8.78615,26.27831 22.83315,48.66877 22.83315,48.66877 v 0 c 0.004,21.95027 -6.84851,43.55152 -6.84851,43.55152 0,0 7.79805,-2.78534 13.92508,-14.48242 3.63652,-6.94245 4.71472,-25.61935 4.99654,-39.68703 7.01247,-8.84999 13.65945,-23.59294 12.27048,-47.20544 -2.785,-47.345365 -38.43331,-69.06913 -38.43331,-69.06913 0,0 -1.67148,-9.469034 -7.79853,-13.925083 -3.13248,-2.27815 21.41237,-10.012642 11.1125,-11.641673 C 240.49693,0.75838558 214.12129,-17.9134 177.45852,-21.230432 Z"
       style="fill:#15110e;fill-opacity:1;stroke:none;stroke-width:0.52358377px;stroke-linecap:butt;stroke-linejoin:miter;stroke-opacity:1;enable-background:new" />
    <path
       sodipodi:nodetypes="csscccc"
       inkscape:connector-curvature="0"
       id="path4982"
       d="m 210.15476,11.929881 c 0,0 54.8942,-13.5493308 89.20238,29.482153 46.74328,58.628366 29.19667,151.316046 3.0238,169.333446 -25.91403,17.83922 -52.91665,46.11309 -52.91665,46.11309 L 270.63094,128.34667 228.34,22.260436 Z"
       style="fill:#15110e;fill-opacity:1;stroke:none;stroke-width:0.26458332px;stroke-linecap:butt;stroke-linejoin:miter;stroke-opacity:1" />
    <ellipse
       transform="rotate(12.508622)"
       ry="40.927994"
       rx="21.003706"
       cy="116.66001"
       cx="289.63147"
       id="ellipse4984"
       style="fill:#f7c6b4;fill-opacity:1;stroke:none;stroke-width:1.079;stroke-miterlimit:4;stroke-dasharray:none;stroke-opacity:1" />
    <path
       style="fill:#15110e;fill-opacity:1;stroke:none;stroke-width:0.26458332px;stroke-linecap:butt;stroke-linejoin:miter;stroke-opacity:1"
       d="m 249.75237,12.247793 c 0,0 -4.06785,-28.288139 -44.13332,-41.139331 -40.06548,-12.851188 -68.03572,-10.583333 -77.10715,-25.702379 -9.07143,-15.119048 6.99387,36.184132 27.97024,34.773809 20.97638,-1.410324 53.67262,31.749989 53.67262,31.749989 L 228.34,22.260436 Z"
       id="path4986"
       inkscape:connector-curvature="0" />
    <path
       style="fill:#ecb74a;fill-opacity:1;stroke:none;stroke-width:0.26458332px;stroke-linecap:butt;stroke-linejoin:miter;stroke-opacity:1"
       d="m -109.6131,12.874822 c 0,0 -14.36309,-3.968751 -24.19047,17.953879 -9.82738,21.922618 -20.41071,59.909225 -6.04762,78.052129 14.3631,18.14292 30.23809,-96.006008 30.23809,-96.006008 z"
       id="path5056"
       inkscape:connector-curvature="0"
       sodipodi:nodetypes="cssc" />
    <path
       style="fill:#c49687;fill-opacity:1;stroke:none;stroke-width:0.26458332px;stroke-linecap:butt;stroke-linejoin:miter;stroke-opacity:1"
       d="m -110.91685,23.384024 c 0,0 -23.78699,-39.555885 -43.0304,-39.555885 -19.24341,0 -73.23185,43.297663 -25.12333,68.955537 48.10851,25.657876 56.66114,27.796031 56.66114,27.796031 z"
       id="path5058"
       inkscape:connector-curvature="0"
       sodipodi:nodetypes="csscc" />
    <g
       id="g5077"
       transform="matrix(1.2222095,-1.6154504,1.6154504,1.2222095,-664.22373,-800.05004)">
      <path
         inkscape:connector-curvature="0"
         id="path16"
         style="fill:#e5e7e9;fill-opacity:1;fill-rule:nonzero;stroke:none;stroke-width:0.03527778"
         d="m -86.913861,423.27169 v 27.23445 l -48.178859,-1.0407 -0.4445,-0.0106 -0.37395,-0.007 h -22.38022 l -0.82197,0.0176 -48.17886,1.0407 v -27.23445 l 49.00083,1.05834 h 22.38022 l 48.997309,-1.05834" />
      <path
         inkscape:connector-curvature="0"
         id="path18"
         style="fill:#aeb6bf;fill-opacity:1;fill-rule:nonzero;stroke:none;stroke-width:0.03527778"
         d="m -86.913861,448.46355 h 4.43438 v -23.14924 h -4.43438 z" />
      <path
         inkscape:connector-curvature="0"
         id="path20"
         style="fill:#aeb6bf;fill-opacity:1;fill-rule:nonzero;stroke:none;stroke-width:0.03527778"
         d="m -211.72311,448.46355 h 4.43082 v -23.14924 h -4.43082 z" />
      <path
         inkscape:connector-curvature="0"
         id="path22"
         style="fill:#b03a2e;fill-opacity:1;fill-rule:nonzero;stroke:none;stroke-width:0.03527778"
         d="m -145.29506,446.21636 -0.17639,0.3175 -0.4198,0.75141 -0.66322,1.18534 -0.54681,0.97719 -0.65617,1.17828 -2.10255,3.76414 -7.67997,13.75128 -1.82739,-5.05877 -5.1435,1.16759 7.67997,-13.75124 0.58914,-1.05128 1.6263,-2.91394 0.0177,-0.0318 v -0.004 l 1.26648,-2.26484 0.64558,-1.15358 0.42333,-0.75847 1.3582,0.75847 5.01297,2.80106 0.59619,0.33513" />
      <path
         inkscape:connector-curvature="0"
         id="path24"
         style="fill:#b03a2e;fill-opacity:1;fill-rule:nonzero;stroke:none;stroke-width:0.03527778"
         d="m -127.27517,464.25032 -5.1435,-1.16759 -1.82739,5.05877 -7.57061,-13.55725 -2.45533,-4.39561 -0.41275,-0.74084 -0.66322,-1.18886 -0.54328,-0.97367 -0.42333,-0.75141 -0.17639,-0.3175 0.59972,-0.33514 5.00944,-2.80106 0.37748,-0.21166 0.98072,-0.54681 0.42333,0.75847 0.55033,0.98073 v 0.004 l 1.37937,2.46945 1.25941,2.25425 0.37395,0.66675 0.16227,0.2928 8.09978,14.50266" />
      <path
         inkscape:connector-curvature="0"
         id="path26"
         style="fill:#b03a2e;fill-opacity:1;fill-rule:nonzero;stroke:none;stroke-width:0.03527778"
         d="m -158.29033,449.44674 h 22.3774 v -25.1153 h -22.3774 z" />
      <path
         inkscape:connector-curvature="0"
         id="path28"
         style="fill:#f1c40f;fill-opacity:1;fill-rule:nonzero;stroke:none;stroke-width:0.03527778"
         d="m -132.81025,441.81334 c 0,0.45191 -0.0952,0.87877 -0.27164,1.26682 -0.45156,0.99836 -1.42169,1.7145 -2.56822,1.8027 0.59619,0.40922 1.01247,0.99836 1.2065,1.651 0.23636,0.78316 0.16228,1.65805 -0.2787,2.42358 -0.10583,0.18345 -0.2293,0.35631 -0.37041,0.508 -0.0847,0.10231 -0.17992,0.19403 -0.28223,0.28222 -0.90663,0.78317 -2.21897,0.98778 -3.3408,0.45156 0.68439,1.4358 0.16228,3.18205 -1.23825,3.98992 -0.58561,0.33866 -1.23825,0.46213 -1.86267,0.39511 -0.87136,-0.0917 -1.6898,-0.55386 -2.21544,-1.31939 -0.12347,1.59103 -1.44992,2.83986 -3.06917,2.83986 -1.21003,0 -2.25425,-0.6985 -2.75872,-1.7145 -0.17286,-0.3422 -0.2787,-0.7232 -0.31045,-1.12536 -0.89958,1.31586 -2.67405,1.73566 -4.07458,0.92428 -1.40405,-0.80787 -1.92617,-2.55412 -1.24178,-3.98992 -0.43039,0.20461 -0.889,0.30339 -1.34408,0.29986 -0.85725,-0.007 -1.69686,-0.37042 -2.28247,-1.03364 -0.13406,-0.15169 -0.25753,-0.32103 -0.36336,-0.50447 -0.4445,-0.76553 -0.51859,-1.64395 -0.2787,-2.42711 0.19403,-0.65264 0.60678,-1.24178 1.20297,-1.651 -1.14652,-0.0882 -2.11666,-0.80434 -2.56822,-1.8027 -0.17639,-0.38805 -0.27164,-0.81491 -0.27164,-1.26682 0,-1.6189 1.25236,-2.94534 2.83986,-3.06882 -1.31586,-0.89958 -1.73566,-2.67405 -0.9278,-4.07811 0.2928,-0.508 0.70908,-0.89958 1.18886,-1.16064 0.84667,-0.45861 1.89089,-0.51505 2.80811,-0.0776 -0.68792,-1.4358 -0.1658,-3.18205 1.23472,-3.98991 1.40406,-0.81139 3.17853,-0.39159 4.07811,0.92428 0.12348,-1.59103 1.44992,-2.83987 3.06917,-2.83987 1.61925,0 2.9457,1.24884 3.06917,2.83987 0.89958,-1.31587 2.67405,-1.73567 4.07458,-0.92781 1.40406,0.81139 1.92617,2.55764 1.24178,3.99344 0.91722,-0.43744 1.95792,-0.381 2.80458,0.0776 0.47943,0.26106 0.89253,0.65264 1.18534,1.16064 0.81138,1.40406 0.39158,3.17853 -0.92075,4.07811 1.5875,0.12348 2.83633,1.44992 2.83633,3.06882" />
      <path
         inkscape:connector-curvature="0"
         id="path30"
         style="fill:#d4ac0d;fill-opacity:1;fill-rule:nonzero;stroke:none;stroke-width:0.03527778"
         d="m -138.26208,441.81334 c 0,4.88209 -3.95746,8.83955 -8.8392,8.83955 -4.88209,0 -8.83955,-3.95746 -8.83955,-8.83955 0,-4.88174 3.95746,-8.8392 8.83955,-8.8392 4.88174,0 8.8392,3.95746 8.8392,8.8392" />
      <path
         inkscape:connector-curvature="0"
         id="path32"
         style="fill:#f1c40f;fill-opacity:1;fill-rule:nonzero;stroke:none;stroke-width:0.03527778"
         d="m -140.4179,441.81334 c 0,3.69111 -2.99226,6.68372 -6.68338,6.68372 -3.69147,0 -6.68373,-2.99261 -6.68373,-6.68372 0,-3.69076 2.99226,-6.68338 6.68373,-6.68338 3.69112,0 6.68338,2.99262 6.68338,6.68338" />
      <path
         inkscape:connector-curvature="0"
         id="path34"
         style="fill:#c0c6cc;fill-opacity:1;fill-rule:nonzero;stroke:none;stroke-width:0.03527778"
         d="m -86.913861,450.50614 -48.178859,-1.0407 c 0.14111,-0.15169 0.26458,-0.32455 0.37041,-0.508 0.44098,-0.76553 0.51506,-1.64042 0.2787,-2.42358 -0.19403,-0.65264 -0.61031,-1.24178 -1.2065,-1.651 1.14653,-0.0882 2.11666,-0.80434 2.56822,-1.8027 h 46.168029 v 7.42598 m -120.378359,0 v -2.04259 -5.38339 h 46.17155 c 0.45156,0.99836 1.4217,1.7145 2.56822,1.8027 -0.59619,0.40922 -1.00894,0.99836 -1.20297,1.651 -0.23989,0.78316 -0.1658,1.66158 0.2787,2.42711 0.10583,0.18344 0.2293,0.35278 0.36336,0.50447 l -48.17886,1.0407" />
      <path
         inkscape:connector-curvature="0"
         id="path36"
         style="fill:#929ca7;fill-opacity:1;fill-rule:nonzero;stroke:none;stroke-width:0.03527778"
         d="m -86.913861,448.46355 h 4.43438 v -5.38346 h -4.43438 z" />
      <path
         inkscape:connector-curvature="0"
         id="path38"
         style="fill:#929ca7;fill-opacity:1;fill-rule:nonzero;stroke:none;stroke-width:0.03527778"
         d="m -211.72311,448.46355 h 4.43082 v -5.38346 h -4.43082 z" />
      <path
         inkscape:connector-curvature="0"
         id="path42"
         style="fill:#943128;fill-opacity:1;fill-rule:nonzero;stroke:none;stroke-width:0.03527778"
         d="m -134.24606,468.1415 -7.57061,-13.55725 c 0.10866,0.0116 0.21802,0.0176 0.32809,0.0176 0.5214,0 1.05092,-0.13335 1.53458,-0.41275 1.40053,-0.80786 1.92264,-2.55411 1.23825,-3.98991 0.42369,0.20249 0.87418,0.29915 1.32009,0.29915 0.73484,0 1.45627,-0.26317 2.02071,-0.75071 v 0 0 l 8.09978,14.50266 -5.1435,-1.16759 -1.82739,5.05876" />
      <path
         inkscape:connector-curvature="0"
         id="path44"
         style="fill:#caa80d;fill-opacity:1;fill-rule:nonzero;stroke:none;stroke-width:0.03527778"
         d="m -147.10128,456.10472 c -1.21003,0 -2.25425,-0.6985 -2.75872,-1.7145 v 0 c -0.17286,-0.3422 -0.2787,-0.7232 -0.31045,-1.12536 -0.58843,0.86078 -1.55151,1.33808 -2.53894,1.33808 -0.52211,0 -1.05127,-0.13335 -1.53564,-0.4138 -1.40405,-0.80787 -1.92617,-2.55412 -1.24178,-3.98992 -0.42227,0.20073 -0.87206,0.29986 -1.31903,0.29986 -0.008,0 -0.0166,0 -0.0251,0 v 0 c -0.85725,-0.007 -1.69686,-0.37042 -2.28247,-1.03364 v 0 c -0.13406,-0.15169 -0.25753,-0.32103 -0.36336,-0.50447 -0.4445,-0.76553 -0.51859,-1.64395 -0.2787,-2.42711 0.19403,-0.65264 0.60678,-1.24178 1.20297,-1.651 -1.14652,-0.0882 -2.11666,-0.80434 -2.56822,-1.8027 h 5.2698 c 0.61454,4.28167 4.29754,7.57273 8.74959,7.57273 4.4517,0 8.1347,-3.29106 8.74924,-7.57273 h 5.27015 c -0.45156,0.99836 -1.42169,1.7145 -2.56822,1.8027 0.59619,0.40922 1.01247,0.99836 1.2065,1.651 0.23636,0.78316 0.16228,1.65805 -0.2787,2.42358 -0.10583,0.18345 -0.2293,0.35631 -0.37041,0.508 v 0 c -0.0847,0.10231 -0.17992,0.19403 -0.28223,0.28222 v 0 c -0.56444,0.48754 -1.28587,0.75071 -2.02071,0.75071 -0.44591,0 -0.89641,-0.0967 -1.32009,-0.29915 0.68439,1.4358 0.16228,3.18205 -1.23825,3.98992 -0.48366,0.2794 -1.01318,0.41275 -1.53458,0.41275 -0.11007,0 -0.21943,-0.006 -0.32809,-0.0177 v 0 c -0.87136,-0.0917 -1.6898,-0.55386 -2.21544,-1.31939 -0.12347,1.59103 -1.44992,2.83986 -3.06917,2.83986" />
      <path
         inkscape:connector-curvature="0"
         id="path46"
         style="fill:#b2930b;fill-opacity:1;fill-rule:nonzero;stroke:none;stroke-width:0.03527778"
         d="m -147.10128,450.65289 c -4.45205,0 -8.13505,-3.29106 -8.74959,-7.57273 h 2.18581 c 0.59196,3.0854 3.30553,5.4169 6.56378,5.4169 3.25791,0 5.97147,-2.3315 6.56343,-5.4169 h 2.18581 c -0.61453,4.28167 -4.29753,7.57273 -8.74924,7.57273" />
      <path
         inkscape:connector-curvature="0"
         id="path48"
         style="fill:#caa80d;fill-opacity:1;fill-rule:nonzero;stroke:none;stroke-width:0.03527778"
         d="m -147.10128,448.49706 c -3.25825,0 -5.97182,-2.3315 -6.56378,-5.4169 h 13.12721 c -0.59196,3.0854 -3.30552,5.4169 -6.56343,5.4169" />
      <path
         inkscape:connector-curvature="0"
         id="path40"
         style="fill:#943128;fill-opacity:1;fill-rule:nonzero;stroke:none;stroke-width:0.03527778"
         d="m -157.53996,468.1415 -1.82739,-5.05877 -5.1435,1.16759 7.67997,-13.75124 v 0 0 c 0.008,0 0.0166,0 0.0251,0 0.44697,0 0.89676,-0.0991 1.31904,-0.29986 -0.68439,1.4358 -0.16228,3.18205 1.24177,3.98992 0.48437,0.28045 1.01353,0.4138 1.53564,0.4138 0.98743,0 1.95051,-0.4773 2.53895,-1.33808 0.0318,0.40216 0.13758,0.78316 0.31044,1.12536 l -7.67997,13.75128" />
    </g>
    <ellipse
       style="fill:#f7c6b4;fill-opacity:1;stroke:none;stroke-width:1.079;stroke-miterlimit:4;stroke-dasharray:none;stroke-opacity:1"
       id="path5140"
       cx="-155.84766"
       cy="72.861343"
       rx="24.054256"
       ry="10.557146"
       transform="rotate(27.629034)" />
    <ellipse
       style="fill:#f7c6b4;fill-opacity:1;stroke:none;stroke-width:1.079;stroke-miterlimit:4;stroke-dasharray:none;stroke-opacity:1"
       id="path5140-6"
       cx="-159.1619"
       cy="90.735428"
       rx="24.054256"
       ry="10.557146"
       transform="rotate(27.629034)" />
    <ellipse
       style="fill:#f7c6b4;fill-opacity:1;stroke:none;stroke-width:1.079;stroke-miterlimit:4;stroke-dasharray:none;stroke-opacity:1"
       id="path5140-1"
       cx="-163.23738"
       cy="109.4605"
       rx="24.054256"
       ry="10.557146"
       transform="rotate(27.629034)"
       inkscape:transform-center-x="-11.75986"
       inkscape:transform-center-y="-15.768903" />
    <path
       style="opacity:0.206;fill:#c49687;fill-opacity:1;stroke:none;stroke-width:0.26458332px;stroke-linecap:butt;stroke-linejoin:miter;stroke-opacity:1"
       d="m -132.40181,2.2930666 c -5.56465,-5.7570625 -16.56721,-11.9193639 -23.9886,-8.9140137 -16.71409,6.76849901 -45.02903,39.0544751 -22.74992,46.6981071 8.14679,2.795046 26.59332,-12.828939 26.59332,-12.828939 0,0 -4.47536,19.982504 6.01357,26.19242 30.69862,18.174962 26.55435,-18.801052 25.80121,-19.396274 0,0 -3.83292,-23.643669 -11.66958,-31.7513004 z"
       id="path5079-7"
       inkscape:connector-curvature="0"
       sodipodi:nodetypes="ssscscs" />
    <path
       style="fill:#f7c6b4;fill-opacity:1;stroke:none;stroke-width:0.26458332px;stroke-linecap:butt;stroke-linejoin:miter;stroke-opacity:1"
       d="m -126.98668,1.3688352 c -5.56465,-5.7570625 -16.56721,-11.9193642 -23.9886,-8.9140137 -16.71409,6.76849907 -45.02903,39.0544735 -22.74992,46.6981085 8.14679,2.795044 26.59332,-12.828939 26.59332,-12.828939 0,0 -4.47536,19.9825 6.01357,26.192417 30.69862,18.174963 26.55435,-18.80105 25.80121,-19.396273 0,0 -3.83292,-23.6436682 -11.66958,-31.7512998 z"
       id="path5079"
       inkscape:connector-curvature="0"
       sodipodi:nodetypes="ssscscs" />
    <path
       style="fill:#f7c6b4;fill-opacity:1;stroke:none;stroke-width:0.26458332px;stroke-linecap:butt;stroke-linejoin:miter;stroke-opacity:1"
       d="m -143.791,49.843712 c 0,0 -25.12334,4.810852 -26.72696,8.018087 -1.60361,3.207234 -5.61266,7.750815 -5.61266,7.750815 0,0 42.76314,26.726951 53.72118,14.967092 10.95805,-11.759858 11.49259,-57.195683 11.49259,-57.195683 l -4.40025,9.736112 z"
       id="path5138"
       inkscape:connector-curvature="0" />
    <ellipse
       style="fill:#f7c6b4;fill-opacity:1;stroke:none;stroke-width:0.80870658;stroke-miterlimit:4;stroke-dasharray:none;stroke-opacity:1"
       id="path5140-8"
       cx="-172.44611"
       cy="130.32663"
       rx="17.616835"
       ry="8.097476"
       transform="matrix(0.86963293,0.49369887,-0.43463998,0.90060429,0,0)"
       inkscape:transform-center-x="-8.0696064"
       inkscape:transform-center-y="-8.752195" />
    <g
       id="g5315"
       transform="rotate(20.674278,739.95513,-1122.3096)">
      <path
         sodipodi:nodetypes="sssss"
         inkscape:connector-curvature="0"
         id="path4990-9"
         d="M 931.4081,336.20256 C 846.599,216.91726 652.48126,70.089052 606.34858,63.681735 579.1343,59.901975 568.54412,134.56876 580.63937,148.93186 592.7346,163.29495 804.16848,368.53261 846.07368,444.73971 887.03192,519.2247 958.07564,373.71086 931.4081,336.20256 Z"
         style="fill:#fcc255;fill-opacity:1;stroke:none;stroke-width:0.26458332px;stroke-linecap:butt;stroke-linejoin:miter;stroke-opacity:1" />
      <path
         sodipodi:nodetypes="cssc"
         inkscape:connector-curvature="0"
         id="path5056-2"
         d="m 602.42338,106.45503 c 0,0 -7.41408,-59.02627 -17.24146,-37.103652 -9.82739,21.922618 -20.41072,59.909222 -6.04762,78.052092 14.3631,18.14285 23.28908,-40.94844 23.28908,-40.94844 z"
         style="fill:#ecb74a;fill-opacity:1;stroke:none;stroke-width:0.26458332px;stroke-linecap:butt;stroke-linejoin:miter;stroke-opacity:1" />
      <ellipse
         transform="rotate(27.629034)"
         ry="10.557146"
         rx="24.054256"
         cy="-226.43477"
         cx="499.01593"
         id="path5140-2"
         style="fill:#f7c6b4;fill-opacity:1;stroke:none;stroke-width:1.079;stroke-miterlimit:4;stroke-dasharray:none;stroke-opacity:1" />
      <ellipse
         transform="rotate(27.629034)"
         ry="10.557146"
         rx="24.054256"
         cy="-208.56068"
         cx="495.70169"
         id="path5140-6-8"
         style="fill:#f7c6b4;fill-opacity:1;stroke:none;stroke-width:1.079;stroke-miterlimit:4;stroke-dasharray:none;stroke-opacity:1" />
      <ellipse
         inkscape:transform-center-y="-15.768903"
         inkscape:transform-center-x="-11.75986"
         transform="rotate(27.629034)"
         ry="10.557146"
         rx="24.054256"
         cy="-189.83565"
         cx="491.62619"
         id="path5140-1-9"
         style="fill:#f7c6b4;fill-opacity:1;stroke:none;stroke-width:1.079;stroke-miterlimit:4;stroke-dasharray:none;stroke-opacity:1" />
      <path
         sodipodi:nodetypes="ssscscs"
         inkscape:connector-curvature="0"
         id="path5079-3"
         d="m 591.99881,39.891518 c -5.56465,-5.757066 -16.56722,-11.919371 -23.98861,-8.914019 -16.71409,6.768503 -45.02903,39.054474 -22.74992,46.698107 8.14679,2.795045 26.59332,-12.828937 26.59332,-12.828937 0,0 -4.47536,19.9825 6.01358,26.192417 30.69862,18.174964 26.55435,-18.801051 25.80121,-19.396274 0,0 -3.83292,-23.643656 -11.66958,-31.751294 z"
         style="fill:#f7c6b4;fill-opacity:1;stroke:none;stroke-width:0.26458332px;stroke-linecap:butt;stroke-linejoin:miter;stroke-opacity:1" />
      <path
         sodipodi:nodetypes="cccsccc"
         inkscape:connector-curvature="0"
         id="path5138-6"
         d="m 575.19448,88.366389 c 0,0 -25.12334,4.810853 -26.72696,8.018087 -1.60361,3.207234 -5.61266,7.750814 -5.61266,7.750814 0,0 42.76315,26.72695 53.72119,14.96709 10.95805,-11.75985 9.88897,-53.453903 9.88897,-53.453903 l -10.01291,-4.696446 z"
         style="fill:#f7c6b4;fill-opacity:1;stroke:none;stroke-width:0.26458332px;stroke-linecap:butt;stroke-linejoin:miter;stroke-opacity:1" />
      <ellipse
         inkscape:transform-center-y="-8.752195"
         inkscape:transform-center-x="-8.0696064"
         transform="matrix(0.86963292,0.49369887,-0.43463999,0.90060429,0,0)"
         ry="8.097476"
         rx="17.616835"
         cy="-191.85152"
         cx="493.29895"
         id="path5140-8-1"
         style="fill:#f7c6b4;fill-opacity:1;stroke:none;stroke-width:0.80870658;stroke-miterlimit:4;stroke-dasharray:none;stroke-opacity:1" />
      <path
         sodipodi:nodetypes="csccccc"
         inkscape:connector-curvature="0"
         id="path5301"
         d="m 503.26851,73.82946 c 0,0 47.30672,45.16856 81.24995,48.37579 20.66567,1.95266 -9.32398,-33.838861 -9.32398,-33.838861 l 11.3892,-47.550641 -43.492,-1.46405 -30.20148,32.072337 z"
         style="fill:#f7c6b4;fill-opacity:1;stroke:none;stroke-width:0.26458332px;stroke-linecap:butt;stroke-linejoin:miter;stroke-opacity:1" />
      <path
         inkscape:connector-curvature="0"
         id="path5303"
         d="m 565.83034,32.416188 20.75334,8.39956 c 0,0 -10.54796,-8.777536 -20.75334,-8.39956 z"
         style="fill:#deaf9e;fill-opacity:1;stroke:none;stroke-width:0.26458332px;stroke-linecap:butt;stroke-linejoin:miter;stroke-opacity:1" />
    </g>
    <path
       style="opacity:1;fill:#15110e;fill-opacity:1;stroke:none;stroke-width:1.079;stroke-miterlimit:4;stroke-dasharray:none;stroke-opacity:1"
       d="m 179.00965,437.75474 c 15.93937,35.41839 4.93048,82.68703 -26.13022,112.19479 -31.0607,29.50777 -59.344624,57.35936 -86.223179,32.33323 C 39.777697,557.25663 13.48001,515.41341 35.074418,477.09176 56.668841,438.77011 117.80837,361.5344 152.29221,373.06413 L 107.9769,486.56226 Z"
       id="path5360"
       inkscape:connector-curvature="0"
       sodipodi:nodetypes="csssccc" />
    <path
       style="fill:#fcc255;fill-opacity:1;stroke:none;stroke-width:0.26458332px;stroke-linecap:butt;stroke-linejoin:miter;stroke-opacity:1"
       d="m 330.34514,318.71695 c 0,0 -51.22665,-83.30264 -114.39136,96.21704 -60.23737,171.19993 -40.75206,362.67416 -43.83221,362.41748 0,0 147.43718,-15.65739 191.7188,-88.80945 29.67306,-49.01912 63.68464,-34.18276 47.70625,-83.33153 -22.7901,-70.10126 9.11318,-158.78023 -7.40239,-295.33889 -148.95249,-98.58935 -73.79909,8.84535 -73.79909,8.84535 z"
       id="path5317"
       inkscape:connector-curvature="0"
       sodipodi:nodetypes="cscsscc" />
    <path
       inkscape:connector-curvature="0"
       id="path4900-3"
       d="m 254.40788,276.41183 c -23.99142,26.27356 -89.33825,42.61771 -125.18383,29.45558 0.40285,5.45076 3.35601,12.51905 4.7002,17.01933 41.28473,15.93886 105.91211,-9.96503 127.05372,-28.19444 -1.68719,-6.11034 -4.46347,-12.02017 -6.57009,-18.28047 z"
       style="color:#000000;font-style:normal;font-variant:normal;font-weight:normal;font-stretch:normal;font-size:medium;line-height:normal;font-family:sans-serif;font-variant-ligatures:normal;font-variant-position:normal;font-variant-caps:normal;font-variant-numeric:normal;font-variant-alternates:normal;font-feature-settings:normal;text-indent:0;text-align:start;text-decoration:none;text-decoration-line:none;text-decoration-style:solid;text-decoration-color:#000000;letter-spacing:normal;word-spacing:normal;text-transform:none;writing-mode:lr-tb;direction:ltr;text-orientation:mixed;dominant-baseline:auto;baseline-shift:baseline;text-anchor:start;white-space:normal;shape-padding:0;clip-rule:nonzero;display:inline;overflow:visible;visibility:visible;opacity:1;isolation:auto;mix-blend-mode:normal;color-interpolation:sRGB;color-interpolation-filters:linearRGB;solid-color:#000000;solid-opacity:1;vector-effect:none;fill:#000000;fill-opacity:1;fill-rule:nonzero;stroke:none;stroke-width:12.4683733;stroke-linecap:butt;stroke-linejoin:miter;stroke-miterlimit:4;stroke-dasharray:none;stroke-dashoffset:0;stroke-opacity:1;color-rendering:auto;image-rendering:auto;shape-rendering:auto;text-rendering:auto;enable-background:accumulate"
       sodipodi:nodetypes="ccccc" />
    <path
       style="color:#000000;font-style:normal;font-variant:normal;font-weight:normal;font-stretch:normal;font-size:medium;line-height:normal;font-family:sans-serif;font-variant-ligatures:normal;font-variant-position:normal;font-variant-caps:normal;font-variant-numeric:normal;font-variant-alternates:normal;font-feature-settings:normal;text-indent:0;text-align:start;text-decoration:none;text-decoration-line:none;text-decoration-style:solid;text-decoration-color:#000000;letter-spacing:normal;word-spacing:normal;text-transform:none;writing-mode:lr-tb;direction:ltr;text-orientation:mixed;dominant-baseline:auto;baseline-shift:baseline;text-anchor:start;white-space:normal;shape-padding:0;clip-rule:nonzero;display:inline;overflow:visible;visibility:visible;opacity:1;isolation:auto;mix-blend-mode:normal;color-interpolation:sRGB;color-interpolation-filters:linearRGB;solid-color:#000000;solid-opacity:1;vector-effect:none;fill:#2874a6;fill-opacity:1;fill-rule:nonzero;stroke:none;stroke-width:97.43244171;stroke-linecap:butt;stroke-linejoin:miter;stroke-miterlimit:4;stroke-dasharray:none;stroke-dashoffset:0;stroke-opacity:1;color-rendering:auto;image-rendering:auto;shape-rendering:auto;text-rendering:auto;enable-background:accumulate"
       d="m 2433.5074,1925.3074 c 2.1426,40.8986 -0.3792,76.6921 4.7328,114.5481 21.1649,15.3156 38.8969,32.2103 57.0293,50.6953 125.3072,127.7434 156.9451,308.886 102.5782,509.1133 -54.367,200.2273 -197.2114,415.5138 -416.9805,592.582 -219.7691,177.0683 -473.5206,281.4198 -702.5274,307.2715 -229.0067,25.8516 -430.1534,-26.4121 -555.38277,-154.0762 -125.22944,-127.6641 -156.88467,-308.7639 -102.55078,-508.9805 30.64783,-112.9351 89.44498,-230.6702 174.3125,-343.6445 2.29152,-32.4636 11.48145,-65.1064 29.50975,-97.0996 18.736,-33.249 45.3644,-74.2535 76.8262,-117.166 4.4173,-20.1509 8.8834,-39.5318 13.3828,-58.2832 -199.32966,177.7484 -332.65425,386.5055 -388.06055,590.6738 -60.93963,224.5583 -25.17617,447.5778 127.01953,602.7324 152.19572,155.1547 385.96802,210.8674 635.87692,182.6563 249.909,-28.2112 519.0723,-139.9605 752.7227,-328.2129 233.6504,-188.2524 388.8972,-418.3514 449.875,-642.9258 60.9778,-224.5744 25.2182,-447.6438 -127.0488,-602.8711 -38.5586,-39.3082 -83.3599,-70.2141 -131.3149,-97.0129 z"
       transform="matrix(0.26458333,0,0,0.26458333,-235.91955,-156.77517)"
       id="path5425-7"
       inkscape:connector-curvature="0"
       sodipodi:nodetypes="cccsssssccccssssssc" />
  </g>
</svg>
